Coordinates
version=1
nRows=7
nColumns=40
inDegrees=yes

Units are S.I. units (second, meters, Newtons, ...)
Angles are in degrees.

endheader
time	pelvis_tilt	pelvis_list	pelvis_rotation	pelvis_tx	pelvis_ty	pelvis_tz	hip_flexion_r	hip_adduction_r	hip_rotation_r	knee_angle_r	knee_angle_r_beta	ankle_angle_r	subtalar_angle_r	mtp_angle_r	hip_flexion_l	hip_adduction_l	hip_rotation_l	knee_angle_l	knee_angle_l_beta	ankle_angle_l	subtalar_angle_l	mtp_angle_l	lumbar_extension	lumbar_bending	lumbar_rotation	arm_flex_r	arm_add_r	arm_rot_r	elbow_flex_r	pro_sup_r	wrist_flex_r	wrist_dev_r	arm_flex_l	arm_add_l	arm_rot_l	elbow_flex_l	pro_sup_l	wrist_flex_l	wrist_dev_l
     47.96500000	     -5.33682937	     -6.51187552	      7.62743262	      1.11734013	      0.90803896	      0.46964800	     -4.01040079	      5.66886062	    -18.84306695	      9.37092391	      9.37092391	     19.77980339	      5.27110805	     -3.18300689	     35.56919573	     -5.80944704	     -1.04965539	     17.01933454	     17.01933454	      2.71395814	     -6.95059485	      7.07858828	     -7.88642360	      6.38743739	      3.97737495	     59.54656538	    -18.76308122	     -4.79793969	     88.27387836	     44.69480685	      0.00000000	      0.00000000	    -21.89340849	     -6.71382504	      9.22698476	     25.33609022	     44.39211790	      0.00000000	      0.00000000
     47.97621429	     -5.44236670	     -6.36605545	      7.44999501	      1.11874738	      0.90672336	      0.46760206	     -4.57176256	      5.34363301	    -18.63475637	      9.56976380	      9.56976380	     20.06328343	      5.36697544	     -3.14754719	     35.52152911	     -5.60382317	     -1.40902300	     17.94780854	     17.94780854	      1.91636610	     -7.67591731	      6.97919112	     -7.65886222	      6.16206302	      4.14602722	     60.46087900	    -18.86969223	     -4.87303976	     88.81982240	     44.68733515	      0.00000000	      0.00000000	    -22.58846590	     -6.56509244	      9.23832403	     25.14284550	     44.38518764	      0.00000000	      0.00000000
     47.98742857	     -5.57612110	     -6.28591492	      7.29155779	      1.12021610	      0.90534840	      0.46537488	     -4.90189162	      4.97515752	    -18.70417481	     10.22915366	     10.22915366	     20.92042819	      5.83356025	     -2.01311260	     35.38640676	     -5.33767781	     -1.09460861	     18.63899339	     18.63899339	     -0.18608343	     -9.62340505	      4.17522378	     -7.42859317	      6.02986400	      4.36679352	     60.85880407	    -19.15463870	     -4.74219967	     90.64672527	     44.68934024	      0.00000000	      0.00000000	    -23.15704986	     -6.42307939	      8.99365493	     25.21027304	     44.52616588	      0.00000000	      0.00000000
     47.99864286	     -5.67322346	     -6.06223938	      7.07845582	      1.12176840	      0.90442137	      0.46317938	     -5.40147806	      4.51462472	    -18.44081679	     10.58810919	     10.58810919	     21.15806886	      5.86649540	     -2.08953379	     35.35398608	     -5.11317623	     -1.26900102	     19.81559447	     19.81559447	     -0.70982348	    -10.31586651	      4.13386435	     -7.23323737	      5.70874827	      4.42167918	     61.38509673	    -19.08363364	     -4.75378489	     91.13655376	     44.67998178	      0.00000000	      0.00000000	    -23.61149102	     -6.25116621	      9.00732118	     25.02973170	     44.52311320	      0.00000000	      0.00000000
     48.00985714	     -5.79330875	     -5.95804986	      6.89444983	      1.12322087	      0.90358740	      0.46083278	     -5.62109230	      4.07648856	    -18.29060235	     11.40660177	     11.40660177	     21.33756909	      5.83784723	     -2.25165120	     35.44759444	     -4.95104379	     -1.09535194	     21.14568935	     21.14568935	     -1.03886278	    -11.22581116	      3.93230300	     -7.02122894	      5.57929283	      4.34003648	     61.68779529	    -18.90323373	     -4.70752043	     92.01828843	     44.65776083	      0.00000000	      0.00000000	    -23.85380761	     -6.07420147	      8.99246949	     24.89094162	     44.53336532	      0.00000000	      0.00000000
     48.02107143	     -5.99435821	     -5.75585511	      6.65865874	      1.12462759	      0.90306805	      0.45845031	     -5.64705028	      3.47130542	    -18.06479582	     12.42878419	     12.42878419	     21.42773238	      5.76636476	     -2.54455673	     35.50751459	     -4.71360507	     -0.96565211	     22.31003503	     22.31003503	     -1.18316956	    -12.03689129	      3.71570428	     -6.77764618	      5.30481776	      4.32794378	     61.67719760	    -18.85286851	     -4.72043189	     93.10244186	     44.63268118	      0.00000000	      0.00000000	    -23.92888623	     -5.88693412	      8.93484804	     24.75330101	     44.55926371	      0.00000000	      0.00000000
     48.03228571	     -5.94445038	     -5.49720517	      6.43270387	      1.12623991	      0.90332424	      0.45594424	     -6.00217290	      2.85590850	    -17.83070811	     13.31955231	     13.31955231	     21.27503800	      5.62045485	     -2.74636132	     35.24821513	     -4.48618153	     -0.96446427	     23.46362503	     23.46362503	     -0.92510962	    -12.62100563	      3.44576819	     -6.77332028	      4.98503143	      4.30105393	     61.43647501	    -18.79490158	     -4.72741703	     93.57651495	     44.62052706	      0.00000000	      0.00000000	    -23.84815107	     -5.78174167	      8.91550430	     24.69131809	     44.57133428	      0.00000000	      0.00000000
